<svg xmlns="http://www.w3.org/2000/svg" xmlns:xlink="http://www.w3.org/1999/xlink" width="500" zoomAndPan="magnify" viewBox="0 0 375 42.75" height="57" preserveAspectRatio="xMidYMid meet" version="1.0"><defs><g/><clipPath id="5f265fc6b8"><path d="M 364.097656 21.996094 L 372.242188 21.996094 L 372.242188 30.140625 L 364.097656 30.140625 Z M 364.097656 21.996094 " clip-rule="nonzero"/></clipPath><clipPath id="8b6eee336a"><path d="M 365.585938 21.996094 L 370.75 21.996094 C 371.144531 21.996094 371.523438 22.152344 371.804688 22.433594 C 372.082031 22.710938 372.242188 23.09375 372.242188 23.488281 L 372.242188 28.648438 C 372.242188 29.042969 372.082031 29.425781 371.804688 29.703125 C 371.523438 29.984375 371.144531 30.140625 370.75 30.140625 L 365.585938 30.140625 C 365.191406 30.140625 364.8125 29.984375 364.53125 29.703125 C 364.253906 29.425781 364.097656 29.042969 364.097656 28.648438 L 364.097656 23.488281 C 364.097656 23.09375 364.253906 22.710938 364.53125 22.433594 C 364.8125 22.152344 365.191406 21.996094 365.585938 21.996094 " clip-rule="nonzero"/></clipPath></defs><g clip-path="url(#5f265fc6b8)"><g clip-path="url(#8b6eee336a)"><path fill="#f05b60" d="M 364.097656 21.996094 L 372.242188 21.996094 L 372.242188 30.140625 L 364.097656 30.140625 Z M 364.097656 21.996094 " fill-opacity="1" fill-rule="nonzero"/></g></g><g fill="#ffffff" fill-opacity="1"><g transform="translate(0.861031, 28.619203)"><g><path d="M 15.441406 0.71875 C 19.148438 0.71875 22.1875 -0.410156 25.070312 -3.242188 L 21.464844 -6.796875 C 19.820312 -5.097656 17.65625 -4.425781 15.441406 -4.425781 C 11.066406 -4.425781 7.359375 -7.257812 7.359375 -12.613281 C 7.359375 -17.65625 10.914062 -20.898438 15.496094 -20.898438 C 17.503906 -20.898438 19.613281 -20.179688 21.261719 -18.738281 L 24.605469 -22.1875 C 21.878906 -24.863281 18.945312 -25.945312 15.441406 -25.945312 C 8.082031 -25.945312 2.058594 -21.414062 2.058594 -12.613281 C 2.058594 -3.808594 8.132812 0.71875 15.441406 0.71875 Z M 15.441406 0.71875 "/></g></g></g><g fill="#ffffff" fill-opacity="1"><g transform="translate(27.062115, 28.619203)"><g><path d="M 15.082031 0.566406 C 23.113281 0.566406 28.261719 -5.097656 28.261719 -12.664062 C 28.261719 -20.074219 22.90625 -25.894531 15.082031 -25.894531 C 7.207031 -25.894531 2.007812 -20.074219 2.007812 -12.664062 C 2.007812 -5.097656 7.105469 0.566406 15.082031 0.566406 Z M 15.082031 -4.375 C 10.296875 -4.375 7.308594 -8.132812 7.308594 -12.664062 C 7.308594 -17.140625 10.296875 -21.003906 15.082031 -21.003906 C 19.765625 -21.003906 22.90625 -17.140625 22.90625 -12.664062 C 22.90625 -8.132812 19.972656 -4.375 15.082031 -4.375 Z M 15.082031 -4.375 "/></g></g></g><g fill="#ffffff" fill-opacity="1"><g transform="translate(57.329773, 28.619203)"><g><path d="M 3.601562 0 L 8.90625 0 L 8.90625 -14.054688 C 8.90625 -17.8125 11.324219 -20.953125 15.03125 -20.953125 C 18.789062 -20.953125 20.953125 -17.8125 20.953125 -14.054688 L 20.953125 0 L 26.304688 0 L 26.304688 -14.054688 C 26.304688 -17.8125 28.722656 -20.898438 32.480469 -20.898438 C 36.1875 -20.898438 38.09375 -17.914062 38.09375 -14.15625 L 38.09375 0 L 43.445312 0 L 43.445312 -14.15625 C 43.445312 -21.570312 39.742188 -25.945312 32.6875 -25.945312 C 29.1875 -25.945312 26.046875 -24.65625 23.988281 -20.847656 C 22.445312 -24.605469 19.304688 -25.945312 16.007812 -25.945312 C 13.332031 -25.945312 10.347656 -24.964844 8.90625 -22.136719 L 8.546875 -25.429688 L 3.601562 -25.429688 Z M 3.601562 0 "/></g></g></g><g fill="#ffffff" fill-opacity="1"><g transform="translate(104.018155, 28.619203)"><g><path d="M 3.601562 11.839844 L 8.90625 11.839844 L 8.90625 -3.601562 C 10.808594 -0.410156 14.773438 0.667969 17.863281 0.667969 C 25.738281 0.667969 30.679688 -4.890625 30.679688 -12.664062 C 30.679688 -20.28125 25.480469 -25.894531 17.863281 -25.894531 C 14.414062 -25.894531 10.914062 -24.347656 8.90625 -21.261719 L 8.597656 -25.429688 L 3.601562 -25.429688 Z M 17.347656 -4.476562 C 12.664062 -4.476562 9.367188 -8.132812 9.367188 -12.664062 C 9.367188 -17.195312 12.457031 -20.746094 17.347656 -20.746094 C 22.238281 -20.746094 25.378906 -17.449219 25.378906 -12.664062 C 25.378906 -7.925781 22.03125 -4.476562 17.347656 -4.476562 Z M 17.347656 -4.476562 "/></g></g></g><g fill="#ffffff" fill-opacity="1"><g transform="translate(136.756646, 28.619203)"><g><path d="M 15.082031 0.667969 C 18.171875 0.667969 22.1875 -0.824219 23.832031 -4.117188 L 24.089844 0 L 29.136719 0 L 29.136719 -25.429688 L 23.988281 -25.429688 L 23.832031 -21.363281 C 22.238281 -24.246094 18.839844 -25.945312 15.1875 -25.945312 C 7.925781 -25.945312 2.058594 -21.207031 2.058594 -12.714844 C 2.058594 -4.066406 7.671875 0.667969 15.082031 0.667969 Z M 15.597656 -4.273438 C 11.066406 -4.273438 7.359375 -7.515625 7.359375 -12.714844 C 7.359375 -17.863281 11.066406 -21.105469 15.597656 -21.105469 C 21.105469 -21.105469 23.832031 -16.882812 23.832031 -12.714844 C 23.832031 -8.492188 21.105469 -4.273438 15.597656 -4.273438 Z M 15.597656 -4.273438 "/></g></g></g><g fill="#ffffff" fill-opacity="1"><g transform="translate(169.495136, 28.619203)"><g><path d="M 3.601562 0 L 8.90625 0 L 8.90625 -13.28125 C 8.90625 -17.449219 11.738281 -21.003906 16.007812 -21.003906 C 20.386719 -21.003906 22.855469 -17.964844 22.855469 -13.589844 L 22.855469 0 L 28.210938 0 L 28.210938 -13.640625 C 28.210938 -21.570312 23.421875 -25.894531 17.296875 -25.894531 C 14 -25.894531 11.171875 -24.503906 8.75 -21.722656 L 8.441406 -25.429688 L 3.601562 -25.429688 Z M 3.601562 0 "/></g></g></g><g fill="#ffffff" fill-opacity="1"><g transform="translate(200.895264, 28.619203)"><g><path d="M 6.023438 11.839844 L 11.890625 11.839844 L 27.902344 -25.429688 L 21.980469 -25.429688 L 16.9375 -13.125 L 14.207031 -6.175781 L 7.308594 -25.429688 L 1.132812 -25.429688 L 11.273438 -0.359375 Z M 6.023438 11.839844 "/></g></g></g><g fill="#ffffff" fill-opacity="1"><g transform="translate(229.618642, 28.619203)"><g><path d="M 13.179688 0.71875 C 19.714844 0.71875 23.988281 -2.574219 23.988281 -7.257812 C 23.988281 -13.847656 17.914062 -14.671875 13.230469 -15.238281 C 9.933594 -15.648438 7.722656 -16.371094 7.722656 -18.480469 C 7.722656 -20.386719 9.730469 -21.464844 12.921875 -21.464844 C 15.546875 -21.464844 17.757812 -21.003906 19.820312 -19.097656 L 22.804688 -22.597656 C 19.921875 -25.070312 16.9375 -25.945312 13.023438 -25.945312 C 8.289062 -25.945312 2.472656 -23.886719 2.472656 -18.324219 C 2.472656 -12.765625 8.082031 -11.171875 12.816406 -10.707031 C 16.523438 -10.347656 18.6875 -9.472656 18.6875 -7.308594 C 18.6875 -4.890625 15.753906 -3.964844 13.28125 -3.964844 C 10.242188 -3.964844 6.796875 -5.097656 4.375 -7.722656 L 1.597656 -3.964844 C 4.941406 -0.207031 9.058594 0.71875 13.179688 0.71875 Z M 13.179688 0.71875 "/></g></g></g><g fill="#ffffff" fill-opacity="1"><g transform="translate(255.304971, 28.619203)"><g><path d="M 15.753906 0.71875 C 19.664062 0.71875 24.039062 -0.667969 26.664062 -3.601562 L 23.214844 -6.949219 C 21.621094 -5.148438 18.480469 -4.222656 15.855469 -4.222656 C 11.171875 -4.222656 8.03125 -6.691406 7.566406 -10.605469 L 28.15625 -10.605469 C 28.210938 -11.375 28.261719 -12.148438 28.261719 -12.871094 C 28.261719 -21.621094 22.957031 -25.945312 15.390625 -25.945312 C 7.464844 -25.945312 2.058594 -20.4375 2.058594 -12.714844 C 2.058594 -4.582031 7.414062 0.71875 15.753906 0.71875 Z M 7.671875 -15.082031 C 8.492188 -19.148438 11.632812 -21.207031 15.546875 -21.207031 C 19.871094 -21.207031 22.703125 -19.148438 23.0625 -15.082031 Z M 7.671875 -15.082031 "/></g></g></g><g fill="#ffffff" fill-opacity="1"><g transform="translate(285.263777, 28.619203)"><g><path d="M 10.191406 0 L 16.371094 0 L 19.355469 -8.441406 L 21.878906 -17.195312 L 24.347656 -8.441406 L 27.335938 0 L 33.511719 0 L 42.417969 -25.429688 L 36.496094 -25.429688 L 30.21875 -5.558594 L 24.144531 -25.429688 L 19.5625 -25.429688 L 13.488281 -5.558594 L 7.207031 -25.429688 L 1.234375 -25.429688 Z M 10.191406 0 "/></g></g></g><g fill="#ffffff" fill-opacity="1"><g transform="translate(328.915098, 28.619203)"><g><path d="M 15.082031 0.667969 C 18.171875 0.667969 22.1875 -0.824219 23.832031 -4.117188 L 24.089844 0 L 29.136719 0 L 29.136719 -25.429688 L 23.988281 -25.429688 L 23.832031 -21.363281 C 22.238281 -24.246094 18.839844 -25.945312 15.1875 -25.945312 C 7.925781 -25.945312 2.058594 -21.207031 2.058594 -12.714844 C 2.058594 -4.066406 7.671875 0.667969 15.082031 0.667969 Z M 15.597656 -4.273438 C 11.066406 -4.273438 7.359375 -7.515625 7.359375 -12.714844 C 7.359375 -17.863281 11.066406 -21.105469 15.597656 -21.105469 C 21.105469 -21.105469 23.832031 -16.882812 23.832031 -12.714844 C 23.832031 -8.492188 21.105469 -4.273438 15.597656 -4.273438 Z M 15.597656 -4.273438 "/></g></g></g></svg>